<svg data-name="TomorrowInsurance" xmlns="http://www.w3.org/2000/svg" width="123" height="28" style=""><rect id="backgroundrect" width="100%" height="100%" x="0" y="0" fill="none" stroke="none"/><title>logoipsum-2</title><g class="currentLayer" style=""><title>Layer 1</title><path d="M26.519062042236328,9.948280334472656 c0.36000001430511475,0 0.47999998927116394,0.12999999523162842 0.47999998927116394,0.47999998927116394 v7.920000076293945 h4.070000171661377 c0.3499999940395355,0 0.47999998927116394,0.12999999523162842 0.47999998927116394,0.47999998927116394 v0.699999988079071 c0,0.3499999940395355 -0.12999999523162842,0.47999998927116394 -0.47999998927116394,0.47999998927116394 H25.709060668945312 c-0.3499999940395355,0 -0.49000000953674316,-0.12999999523162842 -0.49000000953674316,-0.47999998927116394 v-9.100000381469727 c0,-0.3499999940395355 0.14000000059604645,-0.47999998927116394 0.49000000953674316,-0.47999998927116394 z" style="fill:#394149" id="svg_1" class=""/><path d="M35.099063873291016,13.438282012939453 c0,-2.309999942779541 1.4600000381469727,-3.700000047683716 4,-3.700000047683716 s4,1.3899999856948853 4,3.700000047683716 v3.0799999237060547 c0,2.309999942779541 -1.4700000286102295,3.700000047683716 -4,3.700000047683716 s-4,-1.3899999856948853 -4,-3.700000047683716 zm6.320000171661377,0 c0,-1.2999999523162842 -0.8100000023841858,-2 -2.2699999809265137,-2 s-2.259999990463257,0.7099999785423279 -2.259999990463257,2 V16.538280487060547 c0,1.309999942779541 0.800000011920929,2 2.259999990463257,2 s2.2699999809265137,-0.7200000286102295 2.2699999809265137,-2 z" style="fill:#394149" id="svg_2" class=""/><path d="M55.009063720703125,14.498279571533203 c0.38999998569488525,0 0.47999998927116394,0.12999999523162842 0.47999998927116394,0.47999998927116394 v1.899999976158142 A3,3 0 0 1 54.42906188964844,19.23828125 a4.360000133514404,4.360000133514404 0 0 1 -3,0.9399999976158142 c-2.5899999141693115,0 -4,-1.3899999856948853 -4,-3.700000047683716 v-3.0999999046325684 c0,-2.2799999713897705 1.4600000381469727,-3.680000066757202 4,-3.680000066757202 c2,0 3.299999952316284,0.7900000214576721 3.8499999046325684,2.369999885559082 a0.4300000071525574,0.4300000071525574 0 0 1 -0.30000001192092896,0.6200000047683716 l-0.7799999713897705,0.27000001072883606 c-0.3400000035762787,0.11999999731779099 -0.47999998927116394,0.05000000074505806 -0.6000000238418579,-0.30000001192092896 a2.059999942779541,2.059999942779541 0 0 0 -2.1700000762939453,-1.2999999523162842 c-1.4700000286102295,0 -2.2699999809265137,0.7099999785423279 -2.2699999809265137,2 V16.538280487060547 c0,1.309999942779541 0.8100000023841858,2 2.2699999809265137,2 S53.7890625,17.868282318115234 53.7890625,16.888282775878906 v-0.7400000095367432 H51.61906433105469 c-0.36000001430511475,0 -0.49000000953674316,-0.14000000059604645 -0.49000000953674316,-0.49000000953674316 v-0.6800000071525574 c0,-0.3499999940395355 0.12999999523162842,-0.47999998927116394 0.49000000953674316,-0.47999998927116394 z" style="fill:#394149" id="svg_3" class=""/><path d="M59.61906433105469,13.438282012939453 c0,-2.309999942779541 1.4600000381469727,-3.700000047683716 4,-3.700000047683716 s4,1.3899999856948853 4,3.700000047683716 v3.0799999237060547 c0,2.309999942779541 -1.4700000286102295,3.700000047683716 -4,3.700000047683716 s-4,-1.3899999856948853 -4,-3.700000047683716 zm6.309999942779541,0 c0,-1.2999999523162842 -0.8100000023841858,-2 -2.259999990463257,-2 s-2.2699999809265137,0.7099999785423279 -2.2699999809265137,2 V16.538280487060547 c0,1.309999942779541 0.8100000023841858,2 2.2699999809265137,2 s2.259999990463257,-0.7200000286102295 2.259999990463257,-2 z" style="fill:#394149" id="svg_4" class=""/><path d="M72.32906341552734,10.23828125 c0,-0.2199999988079071 0.07000000029802322,-0.28999999165534973 0.28999999165534973,-0.28999999165534973 h0.46000000834465027 c0.2199999988079071,0 0.27000001072883606,0.07000000029802322 0.27000001072883606,0.28999999165534973 v9.479999542236328 c0,0.2199999988079071 0,0.28999999165534973 -0.27000001072883606,0.28999999165534973 h-0.46000000834465027 c-0.2199999988079071,0 -0.28999999165534973,-0.07000000029802322 -0.28999999165534973,-0.28999999165534973 z" style="fill:#394149" id="svg_5" class=""/><path d="M82.45906066894531,9.948280334472656 a3.140000104904175,3.140000104904175 0 1 1 0,6.28000020980835 h-3 v3.490000009536743 c0,0.2199999988079071 -0.05000000074505806,0.28999999165534973 -0.25999999046325684,0.28999999165534973 h-0.4699999988079071 c-0.20999999344348907,0 -0.28999999165534973,-0.07000000029802322 -0.28999999165534973,-0.28999999165534973 V10.23828125 c0,-0.2199999988079071 0.07999999821186066,-0.28999999165534973 0.28999999165534973,-0.28999999165534973 zM82.36906433105469,15.23828125 a2.180000066757202,2.180000066757202 0 1 0 0,-4.360000133514404 h-3 V15.23828125 z" style="fill:#394149" id="svg_6" class=""/><path d="M93.40906524658203,9.748279571533203 a3.609999895095825,3.609999895095825 0 0 1 3.7200000286102295,2.180000066757202 c0.07999999821186066,0.1599999964237213 0,0.28999999165534973 -0.1599999964237213,0.3700000047683716 l-0.4399999976158142,0.20000000298023224 c-0.18000000715255737,0.07000000029802322 -0.25,0.05999999865889549 -0.36000001430511475,-0.12999999523162842 a2.7200000286102295,2.7200000286102295 0 0 0 -2.759999990463257,-1.6399999856948853 c-1.690000057220459,0 -2.609999895095825,0.6700000166893005 -2.609999895095825,1.8700000047683716 a1.5199999809265137,1.5199999809265137 0 0 0 1.2699999809265137,1.5399999618530273 a6.789999961853027,6.789999961853027 0 0 0 1.659999966621399,0.3199999928474426 a6.880000114440918,6.880000114440918 0 0 1 2,0.4099999964237213 A2.25,2.25 0 0 1 97.2890625,17.23828125 c0,1.8700000047683716 -1.3600000143051147,3 -3.859999895095825,3 a3.609999895095825,3.609999895095825 0 0 1 -3.8299999237060547,-2.430000066757202 a0.27000001072883606,0.27000001072883606 0 0 1 0.17000000178813934,-0.3799999952316284 l0.4399999976158142,-0.1599999964237213 a0.27000001072883606,0.27000001072883606 0 0 1 0.36000001430511475,0.17000000178813934 A2.859999895095825,2.859999895095825 0 0 0 93.42906188964844,19.23828125 c1.8899999856948853,0 2.819999933242798,-0.6600000262260437 2.819999933242798,-2 a1.4900000095367432,1.4900000095367432 0 0 0 -1.1699999570846558,-1.5299999713897705 a7,7 0 0 0 -1.590000033378601,-0.2800000011920929 l-1.0800000429153442,-0.14000000059604645 a9.5,9.5 0 0 1 -1,-0.27000001072883606 a2.630000114440918,2.630000114440918 0 0 1 -0.8899999856948853,-0.4699999988079071 a2.440000057220459,2.440000057220459 0 0 1 -0.800000011920929,-1.909999966621399 C89.7890625,10.888282775878906 91.09906005859375,9.748279571533203 93.40906524658203,9.748279571533203 z" style="fill:#394149" id="svg_7" class=""/><path d="M102.67906188964844,16.588279724121094 a2.7799999713897705,2.7799999713897705 0 0 0 5.550000190734863,0 V10.23828125 c0,-0.2199999988079071 0.07000000029802322,-0.28999999165534973 0.28999999165534973,-0.28999999165534973 h0.46000000834465027 c0.2199999988079071,0 0.28999999165534973,0.07000000029802322 0.28999999165534973,0.28999999165534973 v6.340000152587891 c0,2.2699999809265137 -1.340000033378601,3.640000104904175 -3.809999942779541,3.640000104904175 s-3.809999942779541,-1.3700000047683716 -3.809999942779541,-3.640000104904175 V10.23828125 c0,-0.2199999988079071 0.07000000029802322,-0.28999999165534973 0.2800000011920929,-0.28999999165534973 h0.4699999988079071 c0.20999999344348907,0 0.2800000011920929,0.07000000029802322 0.2800000011920929,0.28999999165534973 z" style="fill:#394149" id="svg_8" class=""/><path d="M123.06906127929688,9.948280334472656 c0.2199999988079071,0 0.28999999165534973,0.07000000029802322 0.28999999165534973,0.28999999165534973 v9.479999542236328 c0,0.2199999988079071 -0.07000000029802322,0.28999999165534973 -0.28999999165534973,0.28999999165534973 h-0.41999998688697815 c-0.20999999344348907,0 -0.2800000011920929,-0.07000000029802322 -0.2800000011920929,-0.28999999165534973 V13.948280334472656 a18.549999237060547,18.549999237060547 0 0 1 0.17000000178813934,-2.509999990463257 h-0.05999999865889549 a18,18 0 0 1 -1.090000033378601,2.2100000381469727 l-2.1500000953674316,3.7899999618530273 a0.3499999940395355,0.3499999940395355 0 0 1 -0.33000001311302185,0.2199999988079071 h-0.2800000011920929 a0.3700000047683716,0.3700000047683716 0 0 1 -0.3400000035762787,-0.2199999988079071 l-2.180000066757202,-3.8299999237060547 a16.06999969482422,16.06999969482422 0 0 1 -1,-2.180000066757202 h-0.05999999865889549 a21.760000228881836,21.760000228881836 0 0 1 0.1599999964237213,2.5299999713897705 v5.760000228881836 c0,0.2199999988079071 -0.07000000029802322,0.28999999165534973 -0.28999999165534973,0.28999999165534973 h-0.38999998569488525 c-0.2199999988079071,0 -0.28999999165534973,-0.07000000029802322 -0.28999999165534973,-0.28999999165534973 V10.23828125 c0,-0.2199999988079071 0.07000000029802322,-0.28999999165534973 0.28999999165534973,-0.28999999165534973 h0.36000001430511475 a0.4000000059604645,0.4000000059604645 0 0 1 0.4000000059604645,0.23000000417232513 L118.7890625,16.39828109741211 L122.26905822753906,10.23828125 c0.10999999940395355,-0.20999999344348907 0.17000000178813934,-0.23999999463558197 0.38999998569488525,-0.23999999463558197 z" style="fill:#394149" id="svg_9" class=""/><path d="M8.729061126708984,17.788280487060547 v7.230000019073486 a1,1 0 0 1 -2.0899999141693115,0 V17.798282623291016 a1.7699999809265137,1.7699999809265137 0 0 0 1,0.3400000035762787 A1.7200000286102295,1.7200000286102295 0 0 0 8.729061126708984,17.788280487060547 zm8.899999618530273,-2.0899999141693115 a1,1 0 0 0 -1,1 v1.2599999904632568 a1,1 0 1 0 2.0899999141693115,0 V16.748279571533203 A1,1 0 0 0 17.62906265258789,15.698280334472656 zM4.369062423706055,20.528282165527344 a1.7999999523162842,1.7999999523162842 0 0 1 -1,-0.3400000035762787 V27.438282012939453 a1.0499999523162842,1.0499999523162842 0 0 0 2.0999999046325684,0 V20.23828125 A1.8300000429153442,1.8300000429153442 0 0 1 4.369062423706055,20.528282165527344 zm10,-7 a1,1 0 0 0 -1.0499999523162842,1 v5.570000171661377 a1.0499999523162842,1.0499999523162842 0 1 0 2.0999999046325684,0 V14.598281860351562 A1,1 0 0 0 14.319061279296875,13.548282623291016 zm-3.319999933242798,2.140000104904175 a1.8300000429153442,1.8300000429153442 0 0 1 -1.0499999523162842,-0.3400000035762787 v7.269999980926514 a1.0499999523162842,1.0499999523162842 0 1 0 2.0999999046325684,0 V15.338279724121094 A1.7699999809265137,1.7699999809265137 0 0 1 10.999061584472656,15.688282012939453 zM2.099061965942383,21.23828125 V0.9282798767089844 a0.9399999976158142,0.9399999976158142 0 0 0 -0.9399999976158142,-0.9300000071525574 h-0.2199999988079071 a0.9399999976158142,0.9399999976158142 0 0 0 -0.9399999976158142,0.9300000071525574 V21.23828125 a0.9399999976158142,0.9399999976158142 0 0 0 0.9399999976158142,0.9399999976158142 h0.2199999988079071 A0.9399999976158142,0.9399999976158142 0 0 0 2.099061965942383,21.23828125 zm2.380000114440918,-1.4800000190734863 h-0.2199999988079071 a0.9399999976158142,0.9399999976158142 0 0 1 -0.9399999976158142,-0.9399999976158142 V3.3482818603515625 a0.9399999976158142,0.9399999976158142 0 0 1 0.9399999976158142,-0.9300000071525574 h0.2199999988079071 a0.9399999976158142,0.9399999976158142 0 0 1 0.9399999976158142,0.9300000071525574 V18.838279724121094 A0.9399999976158142,0.9399999976158142 0 0 1 4.479063034057617,19.778282165527344 zM7.7890625,17.378280639648438 h-0.23000000417232513 a0.9300000071525574,0.9300000071525574 0 0 1 -0.9300000071525574,-0.9300000071525574 V5.748279571533203 a0.9300000071525574,0.9300000071525574 0 0 1 0.9300000071525574,-0.9399999976158142 H7.7890625 a0.9399999976158142,0.9399999976158142 0 0 1 0.9300000071525574,0.9399999976158142 v10.699999809265137 A0.9300000071525574,0.9300000071525574 0 0 1 7.7890625,17.378280639648438 zm3.309999942779541,-2.450000047683716 H10.889060974121094 a0.9399999976158142,0.9399999976158142 0 0 1 -0.9399999976158142,-0.9300000071525574 V8.23828125 A0.9399999976158142,0.9399999976158142 0 0 1 10.889060974121094,7.23828125 h0.2199999988079071 a0.9399999976158142,0.9399999976158142 0 0 1 0.9399999976158142,0.9399999976158142 v5.800000190734863 A0.9399999976158142,0.9399999976158142 0 0 1 11.109062194824219,14.928279876708984 zm3.319999933242798,-2.1500000953674316 h-0.2199999988079071 a0.9399999976158142,0.9399999976158142 0 0 1 -0.9399999976158142,-0.9399999976158142 V10.348281860351562 a0.9399999976158142,0.9399999976158142 0 0 1 0.9399999976158142,-0.9300000071525574 h0.2199999988079071 a0.9399999976158142,0.9399999976158142 0 0 1 0.9399999976158142,0.9300000071525574 V11.838279724121094 A0.9399999976158142,0.9399999976158142 0 0 1 14.429061889648438,12.778282165527344 z" style="fill:#394149" id="svg_10" class=""/></g></svg>